<svg xmlns="http://www.w3.org/2000/svg" width="24" height="22" viewBox="0 0 24 22">
  <g fill="none" fill-rule="evenodd" stroke="#000" stroke-linecap="round" stroke-linejoin="round" stroke-width=".953" transform="translate(1)">
    <path d="M7.19120371 19.7864156C3.63689075 20.8915548-.029259648 22.0675023.129562752 17.1195228.162650752 16.0871772.168606592 15.0204201.247356032 13.9285161.473016192 10.7851561 3.33909875 1.56286874 6.94701427 1.56286874 8.95611763 1.56286874 9.18971891 2.82683034 9.08846963 4.05108634 8.80788339 7.4399593 9.27707123 6.53400986 9.68339187 9.49273882 9.89316979 11.0220662 10.5483122 12.3667625 9.62383347 16.9229801 9.28435059 18.5959094 8.75295731 19.3006838 7.19120371 19.7864156zM12.2813955 11.3331596C12.1219113 12.4991807 12.0855145 14.0907135 12.6605839 16.9230463 12.9994051 18.5959756 13.5314601 19.30075 15.0932137 19.7864818 18.6475267 20.891621 22.3136771 22.0675685 22.1548547 17.119589 22.1217667 16.0872434 22.1151491 15.0204863 22.0370614 13.9285823 21.8107395 10.7852223 18.9453187 1.56293491 15.3374031 1.56293491 13.3282998 1.56293491 13.0946985 2.82689651 13.195286 4.05115251 13.2773443 5.04180723 13.2958735 5.66584691 13.2700649 6.12577011"/>
    <path d="M13.2698002,6.12596864 C13.2479621,7.75323648 10.9066552,9.3494016 12.4737029,11.6192384 C13.5120044,13.1227571 15.2286098,14.6242906 14.9030239,16.0642803 C14.6972165,16.9755238 14.3491308,17.4308147 13.6417093,18.0819866"/>
    <polyline points="11.133 .125 11.133 4.751 9.273 6.063"/>
    <line x1="11.133" x2="13.139" y1="4.774" y2="6.265"/>
  </g>
</svg>
