<svg xmlns="http://www.w3.org/2000/svg" width="24" height="21" viewBox="0 0 24 21">
  <g fill="none" fill-rule="evenodd" stroke="#000" stroke-linecap="round" stroke-linejoin="round" stroke-width=".953" transform="translate(1 1)">
    <path d="M6.45744422,12.2538001 L6.45744422,10.3929309 C6.45744422,9.99124262 6.78633894,9.6623479 7.18802726,9.6623479 L9.54389286,9.6623479 L9.54389286,7.30714406 C9.54389286,6.90545574 9.87212582,6.57656102 10.2738141,6.57656102 L12.1346833,6.57656102 C12.5370333,6.57656102 12.8652663,6.90545574 12.8652663,7.30714406 L12.8652663,9.6623479 L15.2204701,9.6623479 C15.6221585,9.6623479 15.9510532,9.99124262 15.9510532,10.3929309 L15.9510532,12.2538001 C15.9510532,12.6554884 15.6221585,12.9843831 15.2204701,12.9843831 L12.8652663,12.9843831 L12.8652663,15.3402487 C12.8652663,15.741937 12.5370333,16.07017 12.1346833,16.07017 L10.2738141,16.07017 C9.87212582,16.07017 9.54389286,15.741937 9.54389286,15.3402487 L9.54389286,12.9843831 L7.18802726,12.9843831 C6.78633894,12.9843831 6.45744422,12.6554884 6.45744422,12.2538001 Z"/>
    <path d="M22.2540525 4.87299226L21.9099373 7.2017257C21.8543494 7.5789289 21.5294253 7.85289754 21.1595014 7.8568681L21.1555309 7.8568681 21.1489133 7.8568681C21.116487 7.85620634 21.0840608 7.8535593 21.0516346 7.84892698L17.0526189 7.2579753C16.6350483 7.19643162 16.3438739 6.8046697 16.4054176 6.38709914 16.7316653 4.17880602 17.407984 3.8466025 14.5107987 3.29667994 13.092647 3.02734362 11.4845702 2.9532265 11.223175 2.95124122L11.2211898 2.95057946 11.2106016 2.95057946 11.2092781 2.95057946 11.1986899 2.95057946 11.1980282 2.95057946 11.1867782 2.95057946 11.1854547 2.95124122C10.9240595 2.9532265 9.31598272 3.02734362 7.89783104 3.29667994 4.999984 3.8466025 5.67696448 4.17880602 6.00321216 6.38709914 6.06475584 6.8046697 5.77358144 7.19643162 5.35601088 7.2579753L1.3569952 7.84892698C1.32456896 7.8535593 1.29148096 7.85620634 1.25971648 7.8568681L1.25243712 7.8568681 1.24846656 7.8568681C.87854272 7.85289754.55361856 7.5789289.49803072 7.2017257L.15457728 4.87299226C.13869504 4.76578714.12876864 4.66122906.12479808 4.5579945.1724448 1.95132186 5.68689088.312804096 11.203984.124202496 16.7204154.312804096 22.236185 1.95132186 22.2838317 4.5579945 22.2791994 4.66122906 22.269273 4.76578714 22.2540525 4.87299226zM18.3206834 9.18932186C19.024796 11.3486447 19.9082456 14.0466403 19.9082456 14.709062L19.9082456 16.4111087C19.9082456 17.7412463 18.9612671 18.8311651 17.8045106 18.8311651L4.60372211 18.8311651C3.44696563 18.8311651 2.49998707 17.7419081 2.49998707 16.4111087L2.49998707 14.709062C2.49998707 14.0433315 3.42380403 11.3466595 4.16828403 9.18799834"/>
  </g>
</svg>
