<svg xmlns="http://www.w3.org/2000/svg" width="24" height="20" viewBox="0 0 24 20">
  <path fill="none" stroke="#000" stroke-linecap="round" stroke-linejoin="round" stroke-width=".953" d="M36.8656042,51.7882165 L33.0054773,51.7882165 L32.0523596,45.6308429 L30.9508278,51.7882165 L29.3999691,51.7882165 L28.4475321,55.0483407 C27.5795142,52.2450044 27.0062819,49.7329902 26.2710197,46.717551 L24.2170509,54.5046673 L23.2230853,51.7882165 L21.6497602,51.7882165 L20.4624478,51.7882165 L36.8656042,51.7882165 Z M31.7984218,60.5138243 L31.7984218,57.6408518 L31.7984218,60.5138243 Z M26.5875909,60.5138243 L26.5875909,57.6408518 L26.5875909,60.5138243 Z M24.0230234,61 L34.3623085,61 L24.0230234,61 Z M18,57.4313043 L40,57.4313043 L40,43 L18,43 L18,57.4313043 Z" transform="translate(-17 -42)"/>
</svg>
