<svg xmlns="http://www.w3.org/2000/svg" width="37" height="39" viewBox="0 0 37 39">
  <g fill="none" fill-rule="evenodd">
    <path stroke="#000" stroke-linecap="round" stroke-linejoin="round" stroke-width="1.667" d="M19.0281,4.575431 C20.95709,6.554401 22.15066,9.287831 22.15066,12.306861 C22.15066,15.327081 20.95709,18.059321 19.0281,20.038291 C17.09911,22.016071 14.4347,23.240581 11.49183,23.240581 C8.54896,23.240581 5.88455,22.016071 3.95556,20.038291 C2.02657,18.059321 0.833,15.327081 0.833,12.306861 C0.833,9.287831 2.02657,6.554401 3.95556,4.575431"/>
    <path stroke="#000" stroke-linecap="round" stroke-linejoin="round" stroke-width="1.714" d="M30.665467 29.214976C30.665467 34.097546 26.332677 38.097136 21.035987 38.097136 15.739297 38.097136 11.364857 33.922616 11.364857 29.037666L11.364857 23.254266M30.752575 19.266219C33.278945 19.266219 35.326935 21.314209 35.326935 23.840579 35.326935 26.366949 33.278945 28.413749 30.752575 28.413749 28.226205 28.413749 26.178215 26.366949 26.178215 23.840579 26.178215 21.314209 28.226205 19.266219 30.752575 19.266219z"/>
    <path fill="#334D5E" d="M4.942189,2.044301 C5.597879,2.044301 6.129809,2.547671 6.129809,3.168851 C6.129809,3.790031 5.597879,4.293401 4.942189,4.293401 C4.286499,4.293401 3.754569,3.790031 3.754569,3.168851 C3.754569,2.547671 4.286499,2.044301 4.942189,2.044301"/>
    <path stroke="#000" stroke-linecap="round" stroke-linejoin="round" stroke-width="1.667" d="M4.942189,2.044301 C5.597879,2.044301 6.129809,2.547671 6.129809,3.168851 C6.129809,3.790031 5.597879,4.293401 4.942189,4.293401 C4.286499,4.293401 3.754569,3.790031 3.754569,3.168851 C3.754569,2.547671 4.286499,2.044301 4.942189,2.044301 Z"/>
    <path fill="#334D5E" d="M18.041471,0.856681 C18.697161,0.856681 19.229091,1.388611 19.229091,2.044301 C19.229091,2.699991 18.697161,3.231921 18.041471,3.231921 C17.385781,3.231921 16.853851,2.699991 16.853851,2.044301 C16.853851,1.388611 17.385781,0.856681 18.041471,0.856681"/>
    <path stroke="#000" stroke-linecap="round" stroke-linejoin="round" stroke-width="1.714" d="M18.041471,0.856681 C18.697161,0.856681 19.229091,1.388611 19.229091,2.044301 C19.229091,2.699991 18.697161,3.231921 18.041471,3.231921 C17.385781,3.231921 16.853851,2.699991 16.853851,2.044301 C16.853851,1.388611 17.385781,0.856681 18.041471,0.856681 Z"/>
    <path fill="#334D5E" d="M30.733416,22.893696 C31.168956,22.893696 31.522386,23.247126 31.522386,23.682666 C31.522386,24.118206 31.168956,24.471636 30.733416,24.471636 C30.297876,24.471636 29.943256,24.118206 29.943256,23.682666 C29.943256,23.247126 30.297876,22.893696 30.733416,22.893696"/>
    <path stroke="#000" stroke-linecap="round" stroke-linejoin="round" stroke-width="1.714" d="M30.733416,22.893696 C31.168956,22.893696 31.522386,23.247126 31.522386,23.682666 C31.522386,24.118206 31.168956,24.471636 30.733416,24.471636 C30.297876,24.471636 29.943256,24.118206 29.943256,23.682666 C29.943256,23.247126 30.297876,22.893696 30.733416,22.893696 Z"/>
  </g>
</svg>
