<svg xmlns="http://www.w3.org/2000/svg" width="39" height="41" viewBox="0 0 39 41">
  <g fill="none" fill-rule="evenodd" stroke="#000" stroke-linecap="round" stroke-linejoin="round" stroke-width="1.714">
    <path d="M3.794672,0.8568 L35.025032,0.8568 C36.641052,0.8568 37.961952,1.9278 37.961952,3.2368 L37.961952,28.53144 C37.961952,29.84044 36.641052,30.91144 35.025032,30.91144 L18.811282,30.91144 L9.249632,39.77456 L9.249632,30.91144 L3.794672,30.91144 C2.178652,30.91144 0.856562,29.84044 0.856562,28.53144 L0.856562,3.2368 C0.856562,1.9278 2.178652,0.8568 3.794672,0.8568 Z"/>
    <line x1="11.16" x2="11.16" y1="18.836" y2="6.258"/>
    <line x1="14.368" x2="27.692" y1="13.01" y2="25.509"/>
    <line x1="27.692" x2="17.329" y1="15.787" y2="25.509"/>
    <path d="M11.127095,6.258329 L18.193315,6.258329 C19.997355,6.258329 21.472955,7.481649 21.472955,8.978669 L21.472955,10.290049 C21.472955,11.785879 19.997355,13.009199 18.193315,13.009199 L11.127095,13.009199"/>
  </g>
</svg>
