<svg xmlns="http://www.w3.org/2000/svg" width="51" height="48" viewBox="0 0 51 48">
  <g fill="none" fill-rule="evenodd" stroke="#000" stroke-width="1.628" transform="translate(1 1)">
    <path d="M23.161403,0.151087 L10.616423,12.696067 L13.464093,15.542547 C14.473213,16.551667 14.800463,16.407677 15.350243,15.857897 C15.951193,15.256947 15.767933,13.523117 17.439883,13.034027 C18.358563,12.765087 19.606873,13.329147 20.510083,14.264487 C21.446613,15.168887 22.011863,16.416007 21.742923,17.334687 C21.252643,19.006637 19.520003,18.823377 18.917863,19.425517 C18.369273,19.974107 18.225283,20.302547 19.234403,21.311667 L23.141173,25.216057 L26.890863,21.466367 C27.899983,20.457247 28.228423,20.602427 28.777013,21.149827 C29.379153,21.751967 29.194703,23.484607 30.867843,23.974887 C31.786523,24.242637 33.033643,23.678577 33.938043,22.742047 C34.873383,21.837647 35.438633,20.589337 35.169693,19.671847 C34.680603,17.999897 32.946773,18.183157 32.344633,17.582207 C31.796043,17.033617 31.652053,16.705177 32.659983,15.696057 L35.686153,12.671077 L23.161403,0.151087 Z"/>
    <path d="M25.712882 27.840007L36.525222 38.651157 39.169402 36.006977C40.107122 35.070447 39.972652 34.765807 39.463332 34.255297 38.904032 33.695997 37.292772 33.866167 36.838192 32.313217 36.588292 31.459987 37.113082 30.300927 37.981782 29.460787 38.821922 28.592087 39.980982 28.068487 40.835402 28.318387 42.388352 28.772967 42.218182 30.383037 42.777482 30.942337 43.287992 31.452847 43.592632 31.586127 44.530352 30.649597L48.159852 27.021287 44.674342 23.536967C43.736622 22.599247 43.871092 22.294607 44.380412 21.785287 44.939712 21.227177 46.549782 21.397347 47.004362 19.844397 47.254262 18.991167 46.729472 17.832107 45.859582 16.991967 45.019442 16.123267 43.860382 15.597287 43.005962 15.847187 41.453012 16.301767 41.623182 17.911837 41.065072 18.469947 40.554562 18.980457 40.249922 19.113737 39.312202 18.176017L37.906812 16.771817M12.675718 45.820193L25.220698 33.274023 22.373028 30.428733C21.363908 29.419613 21.036658 29.563603 20.486878 30.113383 19.885928 30.714333 20.069188 32.448163 18.397238 32.937253 17.478558 33.206193 16.230248 32.642133 15.325848 31.706793 14.390508 30.802393 13.825258 29.555273 14.094198 28.636593 14.584478 26.964643 16.317118 27.147903 16.919258 26.545763 17.467848 25.997173 17.611838 25.668733 16.602718 24.659613L12.695948 20.754033 8.946258 24.504913C7.937138 25.514033 7.608698 25.368853 7.060108 24.821453 6.457968 24.219313 6.642418 22.486673 4.969278 21.996393 4.050598 21.728643 2.803478 22.292703 1.899078 23.229233.963738 24.133633.398488 25.380753.667428 26.299433 1.156518 27.971383 2.890348 27.788123 3.491298 28.389073 4.041078 28.937663 4.185068 29.264913 3.177138 30.275223L.150968 33.300203 12.675718 45.820193z"/>
  </g>
</svg>
