<svg xmlns="http://www.w3.org/2000/svg" width="42" height="37" viewBox="0 0 42 37">
  <g fill="none" fill-rule="evenodd" stroke="#000" stroke-linecap="round" stroke-linejoin="round" stroke-width="1.714" transform="translate(0 .528)">
    <path d="M2.18365,6.90319 L39.0677,6.90319 C39.79717,6.90319 40.39336,7.49938 40.39336,8.23004 L40.39336,33.30572 C40.39336,34.03519 39.79717,34.63257 39.0677,34.63257 L2.18365,34.63257 C1.45299,34.63257 0.8568,34.03519 0.8568,33.30572 L0.8568,8.23004 C0.8568,7.49938 1.45299,6.90319 2.18365,6.90319 Z"/>
    <path d="M12.996585 22.262758L12.996585 19.272288C12.996585 18.626118 13.524945 18.097758 14.171115 18.097758L17.956505 18.097758 17.956505 14.312368C17.956505 13.666198 18.484865 13.139028 19.131035 13.139028L22.120315 13.139028C22.766485 13.139028 23.294845 13.666198 23.294845 14.312368L23.294845 18.097758 27.080235 18.097758C27.726405 18.097758 28.254765 18.626118 28.254765 19.272288L28.254765 22.262758C28.254765 22.907738 27.726405 23.436098 27.080235 23.436098L23.294845 23.436098 23.294845 27.222678C23.294845 27.868848 22.766485 28.397208 22.120315 28.397208L19.131035 28.397208C18.484865 28.397208 17.956505 27.868848 17.956505 27.222678L17.956505 23.436098 14.171115 23.436098C13.524945 23.436098 12.996585 22.907738 12.996585 22.262758zM14.63224 6.8306L14.63224 3.02855C14.63224 1.83379 15.60923.8568 16.80399.8568L24.44736.8568C25.64212.8568 26.61911 1.85402 26.61911 3.02855L26.61911 6.8306"/>
  </g>
</svg>
