<svg xmlns="http://www.w3.org/2000/svg" width="32" height="27" viewBox="0 0 32 27">
  <g fill="none" fill-rule="evenodd" stroke="#000" stroke-linecap="round" stroke-linejoin="round" stroke-width="1.266" transform="translate(1 .96)">
    <path d="M1.2171852,4.70377512 L28.4655096,4.70377512 C29.0044102,4.70377512 29.4448493,5.14421424 29.4448493,5.68399392 L29.4448493,24.2088106 C29.4448493,24.7477111 29.0044102,25.1890294 28.4655096,25.1890294 L1.2171852,25.1890294 C0.67740552,25.1890294 0.2369664,24.7477111 0.2369664,24.2088106 L0.2369664,5.68399392 C0.2369664,5.14421424 0.67740552,4.70377512 1.2171852,4.70377512 Z"/>
    <path d="M9.20530908 16.0507528L9.20530908 13.8415242C9.20530908 13.3641621 9.59563836 12.9738328 10.0730005 12.9738328L12.8694812 12.9738328 12.8694812 10.1773521C12.8694812 9.6999899 13.2598105 9.31053974 13.7371727 9.31053974L15.9455221 9.31053974C16.4228843 9.31053974 16.8132136 9.6999899 16.8132136 10.1773521L16.8132136 12.9738328 19.6096943 12.9738328C20.0870564 12.9738328 20.4773857 13.3641621 20.4773857 13.8415242L20.4773857 16.0507528C20.4773857 16.5272358 20.0870564 16.9175651 19.6096943 16.9175651L16.8132136 16.9175651 16.8132136 19.7149249C16.8132136 20.1922871 16.4228843 20.5826164 15.9455221 20.5826164L13.7371727 20.5826164C13.2598105 20.5826164 12.8694812 20.1922871 12.8694812 19.7149249L12.8694812 16.9175651 10.0730005 16.9175651C9.59563836 16.9175651 9.20530908 16.5272358 9.20530908 16.0507528zM10.4136595 4.6501488L10.4136595 1.8413604C10.4136595.95872392 11.135417.2369664 12.0180535.2369664L17.6646413.2369664C18.5472778.2369664 19.2690353.97366896 19.2690353 1.8413604L19.2690353 4.6501488"/>
  </g>
</svg>
